<svg width="180" height="52" viewBox="0 0 180 52" fill="none" xmlns="http://www.w3.org/2000/svg">
<path d="M51.7116 12.1148C52.5547 12.1148 53.2622 11.4223 53.2622 10.5642C53.2622 9.73619 52.5547 9.01358 51.7116 9.01358C50.8686 9.01358 50.146 9.73619 50.146 10.5642C50.146 11.4223 50.8686 12.1148 51.7116 12.1148Z" fill="#4D4D50"/>
<path d="M47.6321 12.1148C48.4751 12.1148 49.1827 11.4223 49.1827 10.5642C49.1827 9.73619 48.4751 9.01358 47.6321 9.01358C46.789 9.01358 46.0664 9.73619 46.0664 10.5642C46.0664 11.4223 46.789 12.1148 47.6321 12.1148Z" fill="#4D4D50"/>
<path d="M8.80685 13.0334C9.63484 13.0334 10.3574 12.3259 10.3574 11.4678C10.3574 10.6398 9.63484 9.93222 8.80685 9.93222C7.96381 9.93222 7.2412 10.6398 7.2412 11.4678C7.22614 12.3259 7.94875 13.0334 8.80685 13.0334Z" fill="#4D4D50"/>
<path d="M114.579 12.1451C115.422 12.1451 116.129 11.4376 116.129 10.5945C116.129 9.76655 115.422 9.04395 114.579 9.04395C113.736 9.04395 113.013 9.76655 113.013 10.5945C113.013 11.4376 113.736 12.1451 114.579 12.1451Z" fill="#4D4D50"/>
<path d="M4.72715 13.0334C5.5702 13.0334 6.27775 12.3259 6.27775 11.4678C6.27775 10.6398 5.5702 9.93222 4.72715 9.93222C3.88411 9.93222 3.1615 10.6398 3.1615 11.4678C3.1615 12.3259 3.88411 13.0334 4.72715 13.0334Z" fill="#4D4D50"/>
<path d="M93.7886 11.3322C94.6317 11.3322 95.3392 10.6397 95.3392 9.78155C95.3392 8.95356 94.6317 8.23096 93.7886 8.23096C92.9456 8.23096 92.223 8.95356 92.223 9.78155C92.223 10.6547 92.9456 11.3322 93.7886 11.3322Z" fill="#4D4D50"/>
<path d="M89.7239 11.3322C90.567 11.3322 91.2745 10.6397 91.2745 9.78155C91.2745 8.95356 90.567 8.23096 89.7239 8.23096C88.8809 8.23096 88.1583 8.95356 88.1583 9.78155C88.1432 10.6547 88.8658 11.3322 89.7239 11.3322Z" fill="#4D4D50"/>
<path d="M81.6398 9.37494H78.9601V21.6442H81.6398V9.37494Z" fill="#4D4D50"/>
<path d="M73.977 18.242C73.977 18.7839 73.5856 18.9646 73.3447 18.9646H71.2522V10.4287H68.5574V18.9646H66.3595V21.6442H74.2781C75.633 21.6442 76.6868 20.5904 76.6868 19.2355V9.37494H73.9921V18.242H73.977Z" fill="#4D4D50"/>
<path d="M123.581 12.4763H123.401C121.037 12.4763 119.261 14.2678 119.261 16.6313V18.1669C119.261 18.6486 118.96 18.9648 118.478 18.9648H117.936H117.71H117.439C116.325 18.9648 116.129 18.2873 116.129 17.5346V17.0529C116.144 16.8271 116.144 16.6163 116.144 16.4356V13.2742H113.45V17.5497C113.45 18.3024 113.314 18.9798 112.185 18.9798H111.884H111.764H110.77V18.2723C110.77 14.5237 109.204 12.5366 105.907 12.5366C103.965 12.5366 102.34 13.7108 101 15.2162V13.3947H98.32V18.9648H97.0404H96.9651H96.363C95.8662 18.9648 95.5801 18.6486 95.5801 18.1669V12.4763H91.2595C88.896 12.4763 87.1346 14.2678 87.1346 16.6313V17.4292C87.1346 19.7024 88.9261 21.5842 91.1692 21.5842C92.3434 21.5842 93.2166 21.2079 93.8338 20.5906C94.4661 21.238 95.3543 21.6294 96.3479 21.6294H96.9501H97.0254H111.749H111.869H112.155C113.374 21.6294 114.217 21.2229 114.82 20.6208C115.422 21.2229 116.19 21.6294 117.048 21.6294H117.71H117.936H118.478C119.426 21.6294 120.239 21.2831 120.826 20.696C121.639 21.253 122.618 21.5842 123.672 21.5842C125.915 21.5842 127.721 19.7024 127.721 17.4292V16.6464C127.721 14.2829 125.945 12.4763 123.581 12.4763ZM92.8854 18.1819C92.4789 18.6637 91.8467 18.9046 91.1692 18.9046C90.4315 18.9046 89.8143 18.2723 89.8143 17.4443V16.6464C89.8143 15.7431 90.4014 15.1711 91.2595 15.1711H92.8854V18.1819ZM108.181 18.9648H101V17.7604C102.535 15.9087 103.98 15.1711 105.546 15.1711C107.067 15.1711 108.181 16.1948 108.181 18.2572V18.9648ZM125.042 17.4443C125.042 18.2723 124.409 18.9046 123.672 18.9046C122.979 18.9046 122.347 18.6637 121.94 18.1819V16.6464C121.94 15.7431 122.527 15.1711 123.401 15.1711H123.581C124.469 15.1711 125.042 15.7582 125.042 16.6464V17.4443Z" fill="#4D4D50"/>
<path d="M63.3337 17.0977C61.5121 13.5599 58.8174 11.8136 55.4 12.9879V15.4568C58.0647 14.4632 59.2389 15.6525 60.3529 17.4891C60.6992 18.0763 61.0605 18.6483 61.2712 18.9645H54.8731H54.6774H52.1634C51.0493 18.9645 50.8536 18.287 50.8536 17.5343V17.0526C50.8687 16.8267 50.8687 16.616 50.8687 16.4353V13.2739H48.1739V17.5494C48.1739 18.3021 48.0385 18.9795 46.9094 18.9795H45.2534H44.9824H44.6663C44.1845 18.9795 43.8835 18.6634 43.8835 18.1816V16.6461C43.8835 14.2826 42.107 12.4911 39.7435 12.4911H39.5629C37.1993 12.4911 35.4229 14.2826 35.4229 16.6461V18.1816C35.4229 18.6634 35.1218 18.9795 34.6401 18.9795H34.2186H34.0229H33.4658C33.1949 18.9795 32.8185 18.7989 32.8185 18.2569V9.38989H30.1238V19.2505C30.1238 20.6204 31.1926 21.6592 32.5626 21.6592H34.0379H34.2336H34.6551C35.5885 21.6592 36.4165 21.3129 37.0036 20.7258C37.8166 21.2828 38.7951 21.614 39.8489 21.614C40.7823 21.614 41.6404 21.2678 42.3178 20.6957C42.9049 21.2979 43.7329 21.6592 44.6813 21.6592H44.9975H45.2685H46.8943C48.1137 21.6592 48.9568 21.2527 49.5589 20.6505C50.1611 21.2527 50.9289 21.6592 51.787 21.6592H54.6925H54.8882H64.9746V18.9645C64.7638 18.9344 64.1918 18.844 63.3337 17.0977ZM41.2188 17.444C41.2188 18.272 40.5866 18.9042 39.8489 18.9042C39.1564 18.9042 38.5241 18.6634 38.1176 18.1816V16.6461C38.1176 15.7428 38.7048 15.1708 39.5779 15.1708H39.7586C40.6167 15.1708 41.2188 15.7579 41.2188 16.6461V17.444Z" fill="#4D4D50"/>
<path d="M23.7106 16.857C23.7106 14.7644 25.5322 14.0418 27.9409 14.9149V12.446C24.5386 11.2868 20.7148 12.5062 20.7148 16.7666C20.7148 17.5796 20.9406 18.3323 21.4224 18.9646H19.9621H19.7513H19.2094C18.9384 18.9646 18.562 18.7839 18.562 18.242V9.37494H15.8673V19.2355C15.8673 20.6055 16.9362 21.6442 18.3061 21.6442H19.7664H19.9771H28.7087V18.9646H26.1344C24.7042 18.9646 23.7106 18.4377 23.7106 16.857Z" fill="#4D4D50"/>
<path d="M11.08 17.5494C11.08 18.3022 10.8692 18.9796 9.77028 18.9796H4.07973C3.23669 18.9796 2.67967 18.4377 2.67967 17.5796V15.2461H0V17.5796C0 19.913 1.7463 21.6593 4.07973 21.6593H10.8391C12.4951 21.6593 13.7446 20.4098 13.7446 18.7538V13.1837H11.08V17.5494Z" fill="#4D4D50"/>
<path d="M59.7355 22.9087C58.8925 22.9087 58.1849 23.6162 58.1849 24.4442C58.1849 25.3023 58.8925 26.0099 59.7355 26.0099C60.5786 26.0099 61.2861 25.3023 61.2861 24.4442C61.2861 23.6162 60.5786 22.9087 59.7355 22.9087Z" fill="#4D4D50"/>
<path d="M9.34884 30.2855V39.5589H7.85846L7.88857 32.5135L5.17879 38.0385H4.15509L1.44531 32.5135L1.49047 39.5589H0.105469V30.2855H1.92705L3.55292 33.6275L4.74221 36.1265L5.91645 33.6275L7.49716 30.2855H9.34884Z" fill="#4D4D50"/>
<path d="M16.5599 38.5051C17.2524 38.5051 17.7943 38.4299 18.3814 38.204L18.7126 39.1675C17.6889 39.589 17.0115 39.6192 16.3039 39.6192C13.9253 39.6192 12.7963 38.2191 12.7963 35.976C12.7963 33.748 13.9856 32.3027 15.9727 32.3027C17.9298 32.3027 18.9234 33.9437 18.6374 36.2018H14.2264C14.2716 37.6621 14.934 38.5051 16.5599 38.5051ZM15.9426 33.2512C14.9189 33.2512 14.3017 34.0641 14.2114 35.3437H17.4481C17.4631 34.1394 16.9061 33.2512 15.9426 33.2512Z" fill="#4D4D50"/>
<path d="M25.8936 38.5051C26.5861 38.5051 27.1281 38.4299 27.7152 38.204L28.0464 39.1675C27.0227 39.589 26.3452 39.6192 25.6377 39.6192C23.2591 39.6192 22.13 38.2191 22.13 35.976C22.13 33.748 23.3193 32.3027 25.3065 32.3027C27.2635 32.3027 28.2571 33.9437 27.9711 36.2018H23.5602C23.6053 37.6621 24.2677 38.5051 25.8936 38.5051ZM25.2914 33.2512C24.2677 33.2512 23.6505 34.0641 23.5602 35.3437H26.7969C26.7969 34.1394 26.2398 33.2512 25.2914 33.2512Z" fill="#4D4D50"/>
<path d="M33.1798 37.8578C33.1798 38.4148 33.4809 38.6406 33.9175 38.6406C34.1282 38.6406 34.4745 38.6105 34.5648 38.5653V39.5589C34.2487 39.6191 33.6616 39.6643 33.3906 39.6643C32.2163 39.6643 31.8099 39.0471 31.8099 37.9632V33.8533H30.9066L31.1023 32.8296H31.8099V31.1586L33.1798 30.8123V32.8447H34.6401L34.4444 33.8684H33.1949V37.8578H33.1798Z" fill="#4D4D50"/>
<path d="M37.3951 31.2942C37.3951 30.8877 37.7263 30.5716 38.1178 30.5716C38.5242 30.5716 38.8404 30.9028 38.8404 31.2942C38.8404 31.6856 38.5092 32.0168 38.1178 32.0168C37.7263 32.0318 37.3951 31.6856 37.3951 31.2942ZM38.8404 39.5138H37.4704V32.8598H38.8404V39.5138Z" fill="#4D4D50"/>
<path d="M42.5889 39.5139V32.7244H43.9588V33.4319C44.7868 32.8448 45.4341 32.5889 46.2772 32.5889C47.6471 32.5889 48.3246 33.3717 48.3246 34.7868V39.5139H46.9546V35.2384C46.9546 34.3803 46.5632 33.9137 45.7051 33.9137C44.9825 33.9137 44.3051 34.3803 43.9287 34.6513V39.5139H42.5889Z" fill="#4D4D50"/>
<path d="M57.4323 32.6041V39.6495C57.4323 42.1335 54.6924 42.8712 52.0278 41.8174L52.2385 40.8388C54.1053 41.5765 56.0774 41.2604 56.0774 39.6345V38.8065C55.5806 39.3033 54.9182 39.5743 54.2257 39.5743C52.4493 39.5743 51.5009 38.0989 51.5009 36.0214C51.5009 33.9439 52.359 32.4837 54.1504 32.4837C54.873 32.4837 55.5354 32.7848 56.0623 33.2966H56.0924V32.6041H57.4323ZM56.0774 37.9183V34.2601C55.8215 34.0493 55.2945 33.7181 54.6322 33.7181C53.5332 33.7181 52.916 34.5913 52.916 36.0214C52.916 37.572 53.5332 38.4602 54.6322 38.4602C55.2945 38.4452 55.8215 38.1291 56.0774 37.9183Z" fill="#4D4D50"/>
<path d="M66.8565 39.5589H65.3661V30.2855H69.22C70.9964 30.2855 72.2008 31.3995 72.2008 33.1157C72.2008 34.877 71.0416 35.9459 69.22 35.9459H66.8565V39.5589ZM69.0845 34.6964C70.0781 34.6964 70.7254 34.2146 70.7254 33.1006C70.7254 32.0318 70.048 31.5199 69.0845 31.5199H66.8565V34.6964H69.0845Z" fill="#4D4D50"/>
<path d="M75.6932 39.5138V30.2855H77.0481V39.5138H75.6932Z" fill="#4D4D50"/>
<path d="M81.2633 33.9136L81.0375 32.9952C83.2655 32.0619 86.1108 32.0468 86.1108 34.862V39.5288H84.7409V38.6256C84.0634 39.3181 83.3257 39.6192 82.4677 39.6192C81.3085 39.6192 80.616 38.8363 80.616 37.7976C80.616 36.2771 82.1666 35.1631 84.7409 35.2986V34.8921C84.7409 33.1006 82.9644 33.2662 81.2633 33.9136ZM81.8956 37.632C81.8956 38.2342 82.3773 38.5503 83.0247 38.5503C83.7623 38.5503 84.2742 38.2492 84.7409 37.8126V36.1115C82.8591 35.9007 81.8956 36.8642 81.8956 37.632Z" fill="#4D4D50"/>
<path d="M91.124 37.8578C91.124 38.4148 91.4251 38.6406 91.8617 38.6406C92.0725 38.6406 92.4187 38.6105 92.509 38.5653V39.5589C92.1929 39.6191 91.6058 39.6643 91.3348 39.6643C90.1606 39.6643 89.7541 39.0471 89.7541 37.9632V33.8533H88.8508L89.0465 32.8296H89.7541V31.1586L91.124 30.8123V32.8447H92.5843L92.3886 33.8684H91.1391V37.8578H91.124Z" fill="#4D4D50"/>
<path d="M99.1028 32.8449L98.9071 33.8836H97.3716V39.5441H96.0167V33.8836H94.9026L95.1586 32.8449H96.0167V32.0018C96.0167 30.2104 97.2963 29.4275 99.1931 30.2405L99.0727 31.1287C97.8232 30.5867 97.3716 31.1287 97.3716 32.062V32.8298H99.1028V32.8449Z" fill="#4D4D50"/>
<path d="M101.316 36.0664C101.316 34.019 102.324 32.5136 104.417 32.5136C106.51 32.5136 107.518 34.019 107.518 36.0664C107.518 38.1138 106.51 39.6192 104.417 39.6192C102.324 39.6192 101.316 38.1138 101.316 36.0664ZM102.58 36.0664C102.58 37.4665 103.152 38.6256 104.417 38.6256C105.697 38.6256 106.239 37.4815 106.239 36.0664C106.239 34.6664 105.697 33.5072 104.417 33.5072C103.152 33.5072 102.58 34.6664 102.58 36.0664Z" fill="#4D4D50"/>
<path d="M110.785 39.5136V32.7241H112.155V33.9736C112.757 33.0553 113.675 32.679 114.564 32.694V33.7629C113.585 33.6876 112.426 34.4253 112.155 35.0124V39.5136H110.785Z" fill="#4D4D50"/>
<path d="M127.27 34.7868V39.5139H125.9V35.2384C125.9 34.3803 125.508 33.9137 124.65 33.9137C123.958 33.9137 123.34 34.3352 122.919 34.6814C122.949 34.8621 122.949 35.0277 122.949 35.2384V39.5139H121.594V35.2384C121.594 34.3803 121.203 33.9137 120.345 33.9137C119.622 33.9137 119.02 34.3803 118.659 34.6513V39.5139H117.289V32.7244H118.659V33.6427C119.291 33.0254 119.968 32.5889 120.917 32.5889C121.865 32.5889 122.482 32.9652 122.768 33.733C123.581 32.9502 124.319 32.5889 125.207 32.5889C126.577 32.5889 127.27 33.3717 127.27 34.7868Z" fill="#4D4D50"/>
<path fill-rule="evenodd" clip-rule="evenodd" d="M140.999 35.8709C140.141 34.3956 138.259 33.8837 136.769 34.7418C135.294 35.5999 134.782 37.4817 135.64 38.9721C136.498 40.4474 138.38 40.9593 139.87 40.1012C141.345 39.2431 141.857 37.3462 140.999 35.8709ZM154.036 21.1478C153.103 20.9219 152.2 20.5908 151.357 20.1542C150.513 22.8941 148.662 24.8511 146.148 26.2813C143.95 27.5308 141.36 28.3136 138.756 28.8104C138.861 29.6384 139.027 30.4664 139.253 31.2643C140.608 32.2579 141.767 33.5375 142.625 35.0279C143.483 36.5032 144.01 38.114 144.191 39.77C144.763 40.3421 145.365 40.869 146.012 41.3658C146.795 40.4625 147.623 39.5893 148.496 38.7915C149.234 38.114 149.972 37.5118 150.694 37C150.724 35.9311 150.619 34.8623 150.348 33.8235C149.083 34.5762 147.819 35.5397 146.554 36.6989L146.479 36.7742C146.148 35.6903 145.696 34.6214 145.109 33.5977C144.492 32.5289 143.769 31.5804 142.956 30.7223C144.943 30.1202 146.915 29.2771 148.647 28.1179C149.475 27.5609 150.227 26.9587 150.89 26.2964C152.32 24.8511 153.404 23.15 154.036 21.1478Z" fill="url(#paint0_radial_2_2964)"/>
<path fill-rule="evenodd" clip-rule="evenodd" d="M157.604 45.4605C155.903 45.4605 154.518 46.8455 154.518 48.5466C154.518 50.2478 155.903 51.6328 157.604 51.6328C159.305 51.6328 160.69 50.2478 160.69 48.5466C160.705 46.8455 159.32 45.4605 157.604 45.4605ZM151.372 26.8081C150.709 27.5006 149.972 28.1179 149.174 28.6297C151.116 30.7223 151.899 33.3116 151.868 36.2021C151.853 38.7312 151.221 41.3657 150.363 43.8647C151.146 44.1809 151.929 44.4518 152.727 44.6626C154.262 43.9852 155.948 43.6238 157.664 43.6238C159.365 43.6238 161.021 43.9701 162.557 44.6325C163.34 44.4217 164.108 44.1658 164.845 43.8497C164.454 42.7206 164.123 41.5765 163.852 40.4173C163.626 39.4387 163.49 38.5054 163.4 37.6172C162.497 37.0451 161.503 36.6236 160.48 36.3225C160.495 37.7978 160.69 39.3785 161.067 41.0496L161.097 41.1549C159.998 40.899 158.839 40.7635 157.664 40.7635C156.43 40.7635 155.241 40.9141 154.096 41.185C154.563 39.1527 154.819 37.03 154.684 34.9525C154.623 33.959 154.473 33.0105 154.232 32.1073C153.72 30.1502 152.787 28.3587 151.372 26.8081Z" fill="url(#paint1_radial_2_2964)"/>
<path fill-rule="evenodd" clip-rule="evenodd" d="M174.224 35.8705C173.366 37.3458 173.878 39.2426 175.353 40.1007C176.828 40.9588 178.725 40.447 179.583 38.9717C180.442 37.4963 179.93 35.5995 178.454 34.7414C176.964 33.8833 175.067 34.3951 174.224 35.8705ZM154.939 31.9413C155.21 32.8596 155.361 33.808 155.421 34.7715C158.206 34.1392 160.826 34.7564 163.34 36.2167C165.523 37.4963 167.495 39.348 169.226 41.3503C169.888 40.8384 170.521 40.2814 171.093 39.7093C171.273 38.0383 171.8 36.3974 172.658 34.907C173.517 33.4317 174.646 32.1671 175.985 31.1886C176.196 30.4057 176.347 29.6079 176.452 28.81C175.278 28.5842 174.119 28.2981 172.975 27.9519C172.026 27.6508 171.138 27.3196 170.325 26.9432C169.377 27.4551 168.518 28.0874 167.751 28.825C169.045 29.5476 170.506 30.1649 172.132 30.6767L172.237 30.7068C171.469 31.5348 170.777 32.4682 170.174 33.4768C169.557 34.5457 169.091 35.6447 168.759 36.7737C167.239 35.3586 165.523 34.0639 163.656 33.1456C162.768 32.7091 161.864 32.3628 160.961 32.1219C159.019 31.58 157.002 31.5047 154.939 31.9413Z" fill="url(#paint2_radial_2_2964)"/>
<path fill-rule="evenodd" clip-rule="evenodd" d="M174.224 16.6916C175.082 18.167 176.964 18.6788 178.454 17.8207C179.93 16.9626 180.442 15.0808 179.583 13.5904C178.725 12.1151 176.844 11.6033 175.353 12.4614C173.863 13.3195 173.366 15.2163 174.224 16.6916ZM161.172 31.4148C162.105 31.6406 163.009 31.9718 163.852 32.4084C164.695 29.6685 166.546 27.7114 169.06 26.2813C171.258 25.0318 173.848 24.2489 176.452 23.7521C176.347 22.9241 176.181 22.0962 175.955 21.2983C174.6 20.3047 173.441 19.0251 172.583 17.5347C171.725 16.0594 171.198 14.4485 171.017 12.7926C170.445 12.2205 169.843 11.6936 169.196 11.1968C168.413 12.1001 167.585 12.9732 166.712 13.7711C165.974 14.4485 165.237 15.0507 164.514 15.5626C164.484 16.6314 164.589 17.7003 164.86 18.739C166.125 17.9863 167.389 17.0228 168.654 15.8637L168.729 15.7884C169.06 16.8723 169.512 17.9412 170.099 18.9649C170.716 20.0337 171.439 20.9821 172.252 21.8402C170.265 22.4424 168.293 23.2855 166.561 24.4446C165.733 25.0016 164.981 25.6038 164.318 26.2662C162.903 27.7114 161.819 29.4276 161.172 31.4148Z" fill="url(#paint3_radial_2_2964)"/>
<path fill-rule="evenodd" clip-rule="evenodd" d="M157.604 7.10179C159.305 7.10179 160.69 5.71679 160.69 4.01565C160.69 2.3145 159.305 0.929504 157.604 0.929504C155.903 0.929504 154.518 2.3145 154.518 4.01565C154.518 5.71679 155.903 7.10179 157.604 7.10179ZM163.836 25.7692C164.499 25.0767 165.236 24.4595 166.034 23.9476C164.092 21.8551 163.31 19.2657 163.34 16.3753C163.355 13.8461 163.987 11.2116 164.845 8.71261C164.062 8.39646 163.279 8.12548 162.482 7.91472C160.946 8.59217 159.26 8.95347 157.544 8.95347C155.843 8.95347 154.187 8.60722 152.651 7.94483C151.868 8.15559 151.1 8.41152 150.363 8.72766C150.754 9.85674 151.085 11.0009 151.356 12.1601C151.582 13.1386 151.718 14.072 151.808 14.9602C152.711 15.5322 153.705 15.9537 154.729 16.2548C154.713 14.7795 154.518 13.1988 154.141 11.5278L154.111 11.4224C155.21 11.6783 156.369 11.8138 157.544 11.8138C158.778 11.8138 159.967 11.6633 161.112 11.3923C160.645 13.4246 160.389 15.5473 160.524 17.6248C160.585 18.6184 160.735 19.5668 160.976 20.4701C161.488 22.4121 162.436 24.2035 163.836 25.7692Z" fill="url(#paint4_radial_2_2964)"/>
<path fill-rule="evenodd" clip-rule="evenodd" d="M140.999 16.6915C141.857 15.2162 141.345 13.3194 139.87 12.4613C138.395 11.6032 136.498 12.115 135.64 13.5903C134.782 15.0657 135.294 16.9625 136.769 17.8206C138.259 18.6787 140.141 18.1819 140.999 16.6915ZM160.269 20.6207C159.998 19.7024 159.847 18.754 159.787 17.7905C157.002 18.4228 154.382 17.8056 151.868 16.3453C149.685 15.0657 147.713 13.214 145.982 11.2118C145.32 11.7236 144.687 12.2806 144.115 12.8527C143.935 14.5237 143.408 16.1646 142.55 17.655C141.692 19.1304 140.563 20.3949 139.223 21.3734C139.012 22.1563 138.861 22.9542 138.756 23.752C139.93 23.9779 141.089 24.2639 142.234 24.6101C143.182 24.9112 144.07 25.2424 144.883 25.6188C145.832 25.1069 146.69 24.4746 147.457 23.737C146.163 23.0144 144.702 22.3971 143.077 21.8853L142.971 21.8552C143.739 21.0272 144.432 20.0938 145.034 19.0852C145.651 18.0163 146.118 16.9174 146.449 15.7883C147.969 17.2034 149.685 18.4981 151.552 19.4164C152.44 19.853 153.344 20.1992 154.247 20.4551C156.204 20.982 158.221 21.0724 160.269 20.6207Z" fill="url(#paint5_radial_2_2964)"/>
<defs>
<radialGradient id="paint0_radial_2_2964" cx="0" cy="0" r="1" gradientUnits="userSpaceOnUse" gradientTransform="translate(144.634 30.7535) scale(10.0205 10.0206)">
<stop stop-color="#AFD13D"/>
<stop offset="0.3989" stop-color="#96B63D"/>
<stop offset="1" stop-color="#73923C"/>
</radialGradient>
<radialGradient id="paint1_radial_2_2964" cx="0" cy="0" r="1" gradientUnits="userSpaceOnUse" gradientTransform="translate(157.013 39.2276) scale(10.3865 10.3865)">
<stop stop-color="#26B3E8"/>
<stop offset="0.3283" stop-color="#18A4D9"/>
<stop offset="1" stop-color="#008ABD"/>
</radialGradient>
<radialGradient id="paint2_radial_2_2964" cx="0" cy="0" r="1" gradientUnits="userSpaceOnUse" gradientTransform="translate(167.467 34.1399) scale(10.2181 10.2181)">
<stop stop-color="#F9A72C"/>
<stop offset="0.00157446" stop-color="#F9A72C"/>
<stop offset="0.499" stop-color="#EB8C2B"/>
<stop offset="1" stop-color="#DF752B"/>
</radialGradient>
<radialGradient id="paint3_radial_2_2964" cx="0" cy="0" r="1" gradientUnits="userSpaceOnUse" gradientTransform="translate(170.583 21.8153) scale(10.0206 10.0206)">
<stop stop-color="#AFD13D"/>
<stop offset="0.3989" stop-color="#96B63D"/>
<stop offset="1" stop-color="#73923C"/>
</radialGradient>
<radialGradient id="paint4_radial_2_2964" cx="0" cy="0" r="1" gradientUnits="userSpaceOnUse" gradientTransform="translate(158.203 13.3409) scale(10.3865 10.3865)">
<stop stop-color="#26B3E8"/>
<stop offset="0.3283" stop-color="#18A4D9"/>
<stop offset="1" stop-color="#008ABD"/>
</radialGradient>
<radialGradient id="paint5_radial_2_2964" cx="0" cy="0" r="1" gradientUnits="userSpaceOnUse" gradientTransform="translate(147.749 18.4284) scale(10.2181 10.2181)">
<stop stop-color="#F9A72C"/>
<stop offset="0.00157446" stop-color="#F9A72C"/>
<stop offset="0.499" stop-color="#EB8C2B"/>
<stop offset="1" stop-color="#DF752B"/>
</radialGradient>
</defs>
</svg>
