<svg width="180" height="51" viewBox="0 0 180 51" fill="none" xmlns="http://www.w3.org/2000/svg">
<path d="M51.7117 11.1853C52.5547 11.1853 53.2623 10.4928 53.2623 9.63466C53.2623 8.80667 52.5547 8.08406 51.7117 8.08406C50.8686 8.08406 50.146 8.80667 50.146 9.63466C50.146 10.4928 50.8686 11.1853 51.7117 11.1853Z" fill="white"/>
<path d="M47.632 11.1853C48.475 11.1853 49.1826 10.4928 49.1826 9.63466C49.1826 8.80667 48.475 8.08406 47.632 8.08406C46.789 8.08406 46.0663 8.80667 46.0663 9.63466C46.0663 10.4928 46.789 11.1853 47.632 11.1853Z" fill="white"/>
<path d="M8.80679 12.1039C9.63478 12.1039 10.3574 11.3963 10.3574 10.5382C10.3574 9.71026 9.63478 9.0027 8.80679 9.0027C7.96375 9.0027 7.24114 9.71026 7.24114 10.5382C7.22608 11.3963 7.94869 12.1039 8.80679 12.1039Z" fill="white"/>
<path d="M114.579 11.2157C115.422 11.2157 116.129 10.5081 116.129 9.66506C116.129 8.83707 115.422 8.11446 114.579 8.11446C113.736 8.11446 113.013 8.83707 113.013 9.66506C113.013 10.5081 113.736 11.2157 114.579 11.2157Z" fill="white"/>
<path d="M4.72715 12.1039C5.5702 12.1039 6.27775 11.3963 6.27775 10.5382C6.27775 9.71026 5.5702 9.0027 4.72715 9.0027C3.88411 9.0027 3.1615 9.71026 3.1615 10.5382C3.1615 11.3963 3.88411 12.1039 4.72715 12.1039Z" fill="white"/>
<path d="M93.7886 10.4027C94.6316 10.4027 95.3392 9.71016 95.3392 8.85206C95.3392 8.02407 94.6316 7.30147 93.7886 7.30147C92.9455 7.30147 92.2229 8.02407 92.2229 8.85206C92.2229 9.72522 92.9455 10.4027 93.7886 10.4027Z" fill="white"/>
<path d="M89.7239 10.4027C90.567 10.4027 91.2745 9.71016 91.2745 8.85206C91.2745 8.02407 90.567 7.30147 89.7239 7.30147C88.8809 7.30147 88.1583 8.02407 88.1583 8.85206C88.1432 9.72522 88.8658 10.4027 89.7239 10.4027Z" fill="white"/>
<path d="M81.6398 8.44543H78.9601V20.7147H81.6398V8.44543Z" fill="white"/>
<path d="M73.977 17.3125C73.977 17.8544 73.5856 18.0351 73.3447 18.0351H71.2522V9.49924H68.5574V18.0351H66.3595V20.7147H74.2781C75.633 20.7147 76.6868 19.6609 76.6868 18.306V8.44543H73.9921V17.3125H73.977Z" fill="white"/>
<path d="M123.581 11.5469H123.401C121.037 11.5469 119.261 13.3383 119.261 15.7019V17.2374C119.261 17.7191 118.96 18.0353 118.478 18.0353H117.936H117.71H117.439C116.325 18.0353 116.129 17.3578 116.129 16.6051V16.1234C116.144 15.8976 116.144 15.6868 116.144 15.5062V12.3447H113.45V16.6202C113.45 17.3729 113.314 18.0503 112.185 18.0503H111.884H111.764H110.77V17.3428C110.77 13.5943 109.204 11.6071 105.907 11.6071C103.965 11.6071 102.34 12.7813 101 14.2868V12.4652H98.32V18.0353H97.0404H96.9651H96.363C95.8662 18.0353 95.5801 17.7191 95.5801 17.2374V11.5469H91.2595C88.896 11.5469 87.1346 13.3383 87.1346 15.7019V16.4997C87.1346 18.7729 88.9261 20.6547 91.1692 20.6547C92.3434 20.6547 93.2166 20.2784 93.8338 19.6612C94.4661 20.3085 95.3543 20.6999 96.3479 20.6999H96.9501H97.0254H111.749H111.869H112.155C113.374 20.6999 114.217 20.2934 114.82 19.6913C115.422 20.2934 116.19 20.6999 117.048 20.6999H117.71H117.936H118.478C119.426 20.6999 120.239 20.3537 120.826 19.7665C121.639 20.3235 122.618 20.6547 123.672 20.6547C125.915 20.6547 127.721 18.7729 127.721 16.4997V15.7169C127.721 13.3534 125.945 11.5469 123.581 11.5469ZM92.8854 17.2525C92.4789 17.7342 91.8467 17.9751 91.1692 17.9751C90.4315 17.9751 89.8143 17.3428 89.8143 16.5148V15.7169C89.8143 14.8137 90.4014 14.2416 91.2595 14.2416H92.8854V17.2525ZM108.181 18.0353H101V16.8309C102.535 14.9793 103.98 14.2416 105.546 14.2416C107.067 14.2416 108.181 15.2653 108.181 17.3277V18.0353ZM125.042 16.5148C125.042 17.3428 124.409 17.9751 123.672 17.9751C122.979 17.9751 122.347 17.7342 121.94 17.2525V15.7169C121.94 14.8137 122.527 14.2416 123.401 14.2416H123.581C124.469 14.2416 125.042 14.8287 125.042 15.7169V16.5148Z" fill="white"/>
<path d="M63.3337 16.1682C61.5121 12.6305 58.8174 10.8842 55.4 12.0584V14.5273C58.0647 13.5337 59.2389 14.723 60.3529 16.5596C60.6992 17.1468 61.0605 17.7188 61.2712 18.035H54.8731H54.6774H52.1634C51.0493 18.035 50.8536 17.3575 50.8536 16.6048V16.1231C50.8687 15.8973 50.8687 15.6865 50.8687 15.5058V12.3444H48.1739V16.6199C48.1739 17.3726 48.0385 18.05 46.9094 18.05H45.2534H44.9824H44.6663C44.1845 18.05 43.8835 17.7339 43.8835 17.2521V15.7166C43.8835 13.3531 42.107 11.5616 39.7435 11.5616H39.5629C37.1993 11.5616 35.4229 13.3531 35.4229 15.7166V17.2521C35.4229 17.7339 35.1218 18.05 34.6401 18.05H34.2186H34.0229H33.4658C33.1949 18.05 32.8185 17.8694 32.8185 17.3274V8.4604H30.1238V18.321C30.1238 19.691 31.1926 20.7297 32.5626 20.7297H34.0379H34.2336H34.6551C35.5885 20.7297 36.4165 20.3835 37.0036 19.7963C37.8166 20.3533 38.7951 20.6845 39.8489 20.6845C40.7823 20.6845 41.6404 20.3383 42.3178 19.7662C42.9049 20.3684 43.7329 20.7297 44.6813 20.7297H44.9975H45.2685H46.8943C48.1137 20.7297 48.9568 20.3232 49.5589 19.7211C50.1611 20.3232 50.9289 20.7297 51.787 20.7297H54.6925H54.8882H64.9746V18.035C64.7638 18.0049 64.1918 17.9145 63.3337 16.1682ZM41.2188 16.5145C41.2188 17.3425 40.5866 17.9748 39.8489 17.9748C39.1564 17.9748 38.5241 17.7339 38.1176 17.2521V15.7166C38.1176 14.8133 38.7048 14.2413 39.5779 14.2413H39.7586C40.6167 14.2413 41.2188 14.8284 41.2188 15.7166V16.5145Z" fill="white"/>
<path d="M23.7106 15.9274C23.7106 13.8349 25.5322 13.1123 27.9409 13.9854V11.5165C24.5386 10.3573 20.7148 11.5767 20.7148 15.8371C20.7148 16.6501 20.9406 17.4028 21.4224 18.0351H19.9621H19.7513H19.2094C18.9384 18.0351 18.562 17.8544 18.562 17.3125V8.44543H15.8673V18.306C15.8673 19.676 16.9362 20.7147 18.3061 20.7147H19.7664H19.9771H28.7087V18.0351H26.1344C24.7042 18.0351 23.7106 17.5082 23.7106 15.9274Z" fill="white"/>
<path d="M11.08 16.62C11.08 17.3727 10.8692 18.0501 9.77028 18.0501H4.07973C3.23669 18.0501 2.67967 17.5082 2.67967 16.6501V14.3166H0V16.6501C0 18.9835 1.7463 20.7298 4.07973 20.7298H10.8391C12.4951 20.7298 13.7446 19.4803 13.7446 17.8243V12.2542H11.08V16.62Z" fill="white"/>
<path d="M59.7356 21.9792C58.8925 21.9792 58.185 22.6867 58.185 23.5147C58.185 24.3728 58.8925 25.0804 59.7356 25.0804C60.5786 25.0804 61.2862 24.3728 61.2862 23.5147C61.2862 22.6867 60.5786 21.9792 59.7356 21.9792Z" fill="white"/>
<path d="M9.34872 29.356V38.6294H7.85834L7.88845 31.584L5.17866 37.1089H4.15497L1.44518 31.584L1.49035 38.6294H0.105347V29.356H1.92692L3.55279 32.698L4.74209 35.197L5.91633 32.698L7.49703 29.356H9.34872Z" fill="white"/>
<path d="M16.5598 37.5756C17.2523 37.5756 17.7942 37.5004 18.3814 37.2745L18.7126 38.238C17.6889 38.6595 17.0114 38.6896 16.3039 38.6896C13.9253 38.6896 12.7962 37.2896 12.7962 35.0465C12.7962 32.8184 13.9855 31.3732 15.9727 31.3732C17.9297 31.3732 18.9233 33.0142 18.6373 35.2723H14.2264C14.2715 36.7326 14.9339 37.5756 16.5598 37.5756ZM15.9426 32.3217C14.9189 32.3217 14.3016 33.1346 14.2113 34.4142H17.448C17.4631 33.2099 16.906 32.3217 15.9426 32.3217Z" fill="white"/>
<path d="M25.8935 37.5756C26.586 37.5756 27.1279 37.5004 27.715 37.2745L28.0462 38.238C27.0225 38.6595 26.3451 38.6896 25.6375 38.6896C23.259 38.6896 22.1299 37.2896 22.1299 35.0465C22.1299 32.8184 23.3192 31.3732 25.3064 31.3732C27.2634 31.3732 28.257 33.0142 27.971 35.2723H23.56C23.6052 36.7326 24.2676 37.5756 25.8935 37.5756ZM25.2913 32.3217C24.2676 32.3217 23.6504 33.1346 23.56 34.4142H26.7967C26.7967 33.2099 26.2397 32.3217 25.2913 32.3217Z" fill="white"/>
<path d="M33.1798 36.9283C33.1798 37.4853 33.4808 37.7111 33.9174 37.7111C34.1282 37.7111 34.4744 37.681 34.5648 37.6358V38.6294C34.2486 38.6896 33.6615 38.7348 33.3905 38.7348C32.2163 38.7348 31.8098 38.1176 31.8098 37.0337V32.9238H30.9066L31.1023 31.9001H31.8098V30.2291L33.1798 29.8828V31.9152H34.64L34.4443 32.9389H33.1948V36.9283H33.1798Z" fill="white"/>
<path d="M37.3951 30.3647C37.3951 29.9582 37.7262 29.6421 38.1177 29.6421C38.5241 29.6421 38.8403 29.9733 38.8403 30.3647C38.8403 30.7561 38.5091 31.0873 38.1177 31.0873C37.7262 31.1023 37.3951 30.7561 37.3951 30.3647ZM38.8403 38.5843H37.4703V31.9303H38.8403V38.5843Z" fill="white"/>
<path d="M42.5888 38.5844V31.7949H43.9587V32.5024C44.7867 31.9153 45.434 31.6594 46.2771 31.6594C47.647 31.6594 48.3245 32.4422 48.3245 33.8573V38.5844H46.9545V34.3089C46.9545 33.4508 46.5631 32.9841 45.705 32.9841C44.9824 32.9841 44.305 33.4508 43.9286 33.7218V38.5844H42.5888Z" fill="white"/>
<path d="M57.4322 31.6746V38.72C57.4322 41.204 54.6923 41.9417 52.0277 40.8879L52.2385 39.9093C54.1052 40.647 56.0773 40.3309 56.0773 38.705V37.877C55.5805 38.3738 54.9181 38.6448 54.2256 38.6448C52.4492 38.6448 51.5008 37.1694 51.5008 35.0919C51.5008 33.0144 52.3589 31.5542 54.1504 31.5542C54.873 31.5542 55.5354 31.8553 56.0623 32.3671H56.0924V31.6746H57.4322ZM56.0773 36.9888V33.3306C55.8214 33.1198 55.2945 32.7886 54.6321 32.7886C53.5331 32.7886 52.9159 33.6618 52.9159 35.0919C52.9159 36.6425 53.5331 37.5307 54.6321 37.5307C55.2945 37.5157 55.8214 37.1995 56.0773 36.9888Z" fill="white"/>
<path d="M66.8564 38.6294H65.366V29.356H69.2199C70.9963 29.356 72.2007 30.47 72.2007 32.1862C72.2007 33.9475 71.0415 35.0164 69.2199 35.0164H66.8564V38.6294ZM69.0844 33.7669C70.078 33.7669 70.7253 33.2851 70.7253 32.1711C70.7253 31.1023 70.0479 30.5904 69.0844 30.5904H66.8564V33.7669H69.0844Z" fill="white"/>
<path d="M75.6931 38.5843V29.356H77.048V38.5843H75.6931Z" fill="white"/>
<path d="M81.2633 32.9841L81.0375 32.0657C83.2655 31.1324 86.1108 31.1173 86.1108 33.9325V38.5993H84.7408V37.6961C84.0634 38.3886 83.3257 38.6897 82.4676 38.6897C81.3084 38.6897 80.6159 37.9068 80.6159 36.8681C80.6159 35.3476 82.1665 34.2336 84.7408 34.3691V33.9626C84.7408 32.1711 82.9644 32.3367 81.2633 32.9841ZM81.8956 36.7025C81.8956 37.3046 82.3773 37.6208 83.0246 37.6208C83.7623 37.6208 84.2741 37.3197 84.7408 36.8831V35.182C82.859 34.9712 81.8956 35.9347 81.8956 36.7025Z" fill="white"/>
<path d="M91.124 36.9283C91.124 37.4853 91.4251 37.7111 91.8616 37.7111C92.0724 37.7111 92.4187 37.681 92.509 37.6358V38.6294C92.1928 38.6896 91.6057 38.7348 91.3347 38.7348C90.1605 38.7348 89.754 38.1176 89.754 37.0337V32.9238H88.8508L89.0465 31.9001H89.754V30.2291L91.124 29.8828V31.9152H92.5843L92.3885 32.9389H91.139V36.9283H91.124Z" fill="white"/>
<path d="M99.1028 31.9154L98.9071 32.9541H97.3715V38.6145H96.0166V32.9541H94.9026L95.1585 31.9154H96.0166V31.0723C96.0166 29.2809 97.2962 28.498 99.1931 29.311L99.0726 30.1992C97.8231 29.6572 97.3715 30.1992 97.3715 31.1325V31.9003H99.1028V31.9154Z" fill="white"/>
<path d="M101.316 35.1369C101.316 33.0895 102.324 31.5841 104.417 31.5841C106.51 31.5841 107.518 33.0895 107.518 35.1369C107.518 37.1843 106.51 38.6897 104.417 38.6897C102.324 38.6897 101.316 37.1843 101.316 35.1369ZM102.58 35.1369C102.58 36.537 103.152 37.6961 104.417 37.6961C105.697 37.6961 106.239 36.552 106.239 35.1369C106.239 33.7368 105.697 32.5777 104.417 32.5777C103.152 32.5777 102.58 33.7368 102.58 35.1369Z" fill="white"/>
<path d="M110.785 38.5841V31.7946H112.155V33.0441C112.757 32.1258 113.675 31.7494 114.563 31.7645V32.8334C113.585 32.7581 112.426 33.4958 112.155 34.0829V38.5841H110.785Z" fill="white"/>
<path d="M127.27 33.8573V38.5844H125.9V34.3089C125.9 33.4508 125.508 32.9841 124.65 32.9841C123.958 32.9841 123.34 33.4057 122.919 33.7519C122.949 33.9326 122.949 34.0982 122.949 34.3089V38.5844H121.594V34.3089C121.594 33.4508 121.203 32.9841 120.345 32.9841C119.622 32.9841 119.02 33.4508 118.658 33.7218V38.5844H117.289V31.7949H118.658V32.7132C119.291 32.0959 119.968 31.6594 120.917 31.6594C121.865 31.6594 122.482 32.0357 122.768 32.8035C123.581 32.0207 124.319 31.6594 125.207 31.6594C126.577 31.6594 127.27 32.4422 127.27 33.8573Z" fill="white"/>
<path fill-rule="evenodd" clip-rule="evenodd" d="M140.999 34.9414C140.141 33.4661 138.259 32.9542 136.769 33.8123C135.294 34.6704 134.782 36.5522 135.64 38.0426C136.498 39.5179 138.38 40.0298 139.87 39.1717C141.345 38.3136 141.857 36.4167 140.999 34.9414ZM154.036 20.2183C153.103 19.9924 152.2 19.6612 151.357 19.2247C150.513 21.9646 148.662 23.9216 146.148 25.3518C143.95 26.6013 141.36 27.3841 138.756 27.8809C138.861 28.7089 139.027 29.5369 139.253 30.3348C140.608 31.3284 141.767 32.608 142.625 34.0984C143.483 35.5737 144.01 37.1845 144.191 38.8405C144.763 39.4126 145.365 39.9395 146.012 40.4363C146.795 39.533 147.623 38.6598 148.496 37.862C149.234 37.1845 149.972 36.5823 150.694 36.0705C150.724 35.0016 150.619 33.9328 150.348 32.894C149.083 33.6467 147.819 34.6102 146.554 35.7694L146.479 35.8447C146.148 34.7608 145.696 33.6919 145.109 32.6682C144.492 31.5993 143.769 30.6509 142.956 29.7928C144.943 29.1907 146.915 28.3476 148.647 27.1884C149.475 26.6314 150.227 26.0292 150.89 25.3668C152.32 23.9216 153.404 22.2205 154.036 20.2183Z" fill="white"/>
<path fill-rule="evenodd" clip-rule="evenodd" d="M157.604 44.531C155.903 44.531 154.518 45.916 154.518 47.6171C154.518 49.3183 155.903 50.7033 157.604 50.7033C159.305 50.7033 160.69 49.3183 160.69 47.6171C160.705 45.916 159.32 44.531 157.604 44.531ZM151.372 25.8786C150.709 26.5711 149.972 27.1884 149.174 27.7002C151.116 29.7928 151.899 32.3821 151.868 35.2725C151.853 37.8017 151.221 40.4362 150.363 42.9352C151.146 43.2514 151.929 43.5223 152.727 43.7331C154.262 43.0556 155.948 42.6943 157.664 42.6943C159.366 42.6943 161.022 43.0406 162.557 43.703C163.34 43.4922 164.108 43.2363 164.845 42.9202C164.454 41.7911 164.123 40.6469 163.852 39.4878C163.626 38.5092 163.49 37.5759 163.4 36.6877C162.497 36.1156 161.503 35.6941 160.48 35.393C160.495 36.8683 160.69 38.449 161.067 40.12L161.097 40.2254C159.998 39.9695 158.839 39.834 157.664 39.834C156.43 39.834 155.241 39.9846 154.097 40.2555C154.563 38.2232 154.819 36.1005 154.684 34.023C154.623 33.0294 154.473 32.081 154.232 31.1778C153.72 29.2207 152.787 27.4292 151.372 25.8786Z" fill="white"/>
<path fill-rule="evenodd" clip-rule="evenodd" d="M174.224 34.941C173.366 36.4163 173.878 38.3131 175.353 39.1712C176.828 40.0293 178.725 39.5175 179.583 38.0422C180.442 36.5668 179.93 34.67 178.454 33.8119C176.964 32.9538 175.067 33.4656 174.224 34.941ZM154.939 31.0118C155.21 31.9301 155.361 32.8785 155.421 33.842C158.206 33.2097 160.826 33.8269 163.34 35.2872C165.523 36.5668 167.495 38.4185 169.226 40.4208C169.888 39.9089 170.521 39.3519 171.093 38.7798C171.273 37.1088 171.8 35.4679 172.658 33.9775C173.517 32.5022 174.646 31.2376 175.985 30.2591C176.196 29.4762 176.347 28.6784 176.452 27.8805C175.278 27.6547 174.119 27.3686 172.975 27.0224C172.026 26.7213 171.138 26.3901 170.325 26.0137C169.377 26.5256 168.518 27.1579 167.751 27.8955C169.045 28.6181 170.506 29.2354 172.132 29.7472L172.237 29.7773C171.469 30.6053 170.777 31.5387 170.174 32.5473C169.557 33.6162 169.091 34.7152 168.759 35.8442C167.239 34.4291 165.523 33.1344 163.656 32.2161C162.768 31.7796 161.864 31.4333 160.961 31.1924C159.019 30.6505 157.002 30.5752 154.939 31.0118Z" fill="white"/>
<path fill-rule="evenodd" clip-rule="evenodd" d="M174.224 15.7621C175.082 17.2375 176.964 17.7493 178.454 16.8912C179.93 16.0331 180.442 14.1513 179.583 12.6609C178.725 11.1856 176.844 10.6738 175.353 11.5319C173.863 12.39 173.366 14.2868 174.224 15.7621ZM161.172 30.4853C162.105 30.7111 163.009 31.0423 163.852 31.4789C164.695 28.739 166.546 26.7819 169.06 25.3518C171.258 24.1023 173.848 23.3194 176.452 22.8226C176.347 21.9946 176.181 21.1667 175.955 20.3688C174.6 19.3752 173.441 18.0956 172.583 16.6052C171.725 15.1299 171.198 13.519 171.018 11.8631C170.445 11.291 169.843 10.7641 169.196 10.2673C168.413 11.1706 167.585 12.0437 166.712 12.8416C165.974 13.519 165.237 14.1212 164.514 14.6331C164.484 15.7019 164.589 16.7708 164.86 17.8095C166.125 17.0568 167.389 16.0933 168.654 14.9342L168.729 14.8589C169.06 15.9428 169.512 17.0117 170.099 18.0353C170.716 19.1042 171.439 20.0526 172.252 20.9107C170.265 21.5129 168.293 22.3559 166.561 23.5151C165.733 24.0721 164.981 24.6743 164.318 25.3367C162.903 26.7819 161.819 28.4981 161.172 30.4853Z" fill="white"/>
<path fill-rule="evenodd" clip-rule="evenodd" d="M157.604 6.17229C159.305 6.17229 160.69 4.78728 160.69 3.08614C160.69 1.385 159.305 0 157.604 0C155.903 0 154.518 1.385 154.518 3.08614C154.518 4.78728 155.903 6.17229 157.604 6.17229ZM163.836 24.8397C164.499 24.1472 165.237 23.53 166.034 23.0181C164.092 20.9255 163.31 18.3362 163.34 15.4458C163.355 12.9166 163.987 10.2821 164.845 7.7831C164.062 7.46696 163.279 7.19598 162.482 6.98522C160.946 7.66267 159.26 8.02397 157.544 8.02397C155.843 8.02397 154.187 7.67772 152.651 7.01533C151.868 7.22609 151.1 7.48201 150.363 7.79815C150.754 8.92723 151.085 10.0714 151.356 11.2305C151.582 12.2091 151.718 13.1425 151.808 14.0307C152.711 14.6027 153.705 15.0242 154.729 15.3253C154.714 13.85 154.518 12.2693 154.141 10.5983L154.111 10.4929C155.21 10.7488 156.37 10.8843 157.544 10.8843C158.778 10.8843 159.967 10.7338 161.112 10.4628C160.645 12.4951 160.389 14.6178 160.525 16.6953C160.585 17.6889 160.735 18.6373 160.976 19.5405C161.488 21.4826 162.436 23.274 163.836 24.8397Z" fill="white"/>
<path fill-rule="evenodd" clip-rule="evenodd" d="M140.999 15.762C141.857 14.2867 141.345 12.3899 139.87 11.5318C138.395 10.6737 136.498 11.1855 135.64 12.6608C134.782 14.1362 135.294 16.033 136.769 16.8911C138.259 17.7492 140.141 17.2524 140.999 15.762ZM160.269 19.6912C159.998 18.7729 159.847 17.8245 159.787 16.861C157.002 17.4933 154.382 16.8761 151.868 15.4158C149.685 14.1362 147.713 12.2845 145.982 10.2823C145.32 10.7941 144.687 11.3511 144.115 11.9232C143.935 13.5942 143.408 15.2351 142.55 16.7255C141.692 18.2008 140.563 19.4654 139.223 20.4439C139.012 21.2268 138.861 22.0247 138.756 22.8225C139.93 23.0483 141.089 23.3344 142.234 23.6806C143.182 23.9817 144.07 24.3129 144.883 24.6893C145.832 24.1774 146.69 23.5451 147.457 22.8075C146.163 22.0849 144.702 21.4676 143.077 20.9558L142.971 20.9257C143.739 20.0977 144.432 19.1643 145.034 18.1557C145.651 17.0868 146.118 15.9879 146.449 14.8588C147.969 16.2739 149.685 17.5686 151.552 18.4869C152.44 18.9235 153.344 19.2697 154.247 19.5256C156.204 20.0525 158.221 20.1429 160.269 19.6912Z" fill="white"/>
</svg>
